<svg width="18" height="21" viewBox="0 0 18 21" fill="none" xmlns="http://www.w3.org/2000/svg">
<path d="M9 10.0625C10.2426 10.0625 11.25 9.05514 11.25 7.8125C11.25 6.56986 10.2426 5.5625 9 5.5625C7.75736 5.5625 6.75 6.56986 6.75 7.8125C6.75 9.05514 7.75736 10.0625 9 10.0625Z" stroke="#101010" stroke-width="1.5" stroke-linecap="round" stroke-linejoin="round"/>
<path d="M14.625 7.8125C14.625 11 9 16.8125 9 16.8125C9 16.8125 3.375 11 3.375 7.8125C3.375 6.32066 3.96763 4.88992 5.02252 3.83502C6.07742 2.78013 7.50816 2.1875 9 2.1875C10.4918 2.1875 11.9226 2.78013 12.9775 3.83502C14.0324 4.88992 14.625 6.32066 14.625 7.8125Z" stroke="#101010" stroke-width="1.5" stroke-linecap="round" stroke-linejoin="round"/>
</svg>
