<svg width="32" height="32" viewBox="0 0 32 32" fill="none" xmlns="http://www.w3.org/2000/svg">
<path d="M15.9998 22.5217C19.6016 22.5217 22.5215 19.6019 22.5215 16C22.5215 12.3982 19.6016 9.47827 15.9998 9.47827C12.3979 9.47827 9.47803 12.3982 9.47803 16C9.47803 19.6019 12.3979 22.5217 15.9998 22.5217Z" stroke="#101828" stroke-miterlimit="10"/>
<path d="M23.1739 1H8.82609C4.50386 1 1 4.50386 1 8.82609V23.1739C1 27.4961 4.50386 31 8.82609 31H23.1739C27.4961 31 31 27.4961 31 23.1739V8.82609C31 4.50386 27.4961 1 23.1739 1Z" stroke="#101828" stroke-linecap="round" stroke-linejoin="round"/>
<path d="M24.4785 9.47823C25.5591 9.47823 26.435 8.60226 26.435 7.52171C26.435 6.44115 25.5591 5.56519 24.4785 5.56519C23.3979 5.56519 22.522 6.44115 22.522 7.52171C22.522 8.60226 23.3979 9.47823 24.4785 9.47823Z" fill="#101828"/>
</svg>
