<svg width="89" height="88" viewBox="0 0 89 88" fill="none" xmlns="http://www.w3.org/2000/svg">
<rect width="88" height="88" transform="translate(0.333496)" fill="white"/>
<path d="M45.7085 63.5938L61.4585 73.5938C63.4897 74.8751 65.9897 72.9688 65.396 70.6251L60.8335 52.6876C60.7101 52.1904 60.7297 51.6684 60.8901 51.1819C61.0504 50.6954 61.3449 50.264 61.7397 49.9376L75.8647 38.1563C77.7085 36.6251 76.771 33.5313 74.3647 33.3751L55.9272 32.1876C55.4242 32.1583 54.9405 31.9831 54.5354 31.6834C54.1303 31.3838 53.8212 30.9726 53.646 30.5001L46.771 13.1876C46.589 12.6873 46.2575 12.2551 45.8214 11.9497C45.3853 11.6443 44.8659 11.4805 44.3335 11.4805C43.8011 11.4805 43.2816 11.6443 42.8456 11.9497C42.4095 12.2551 42.078 12.6873 41.896 13.1876L35.021 30.5001C34.8458 30.9726 34.5367 31.3838 34.1316 31.6834C33.7265 31.9831 33.2428 32.1583 32.7397 32.1876L14.3022 33.3751C11.896 33.5313 10.9585 36.6251 12.8022 38.1563L26.9272 49.9376C27.322 50.264 27.6166 50.6954 27.7769 51.1819C27.9372 51.6684 27.9569 52.1904 27.8335 52.6876L23.6147 69.3126C22.896 72.1251 25.896 74.4063 28.3022 72.8751L42.9585 63.5938C43.3695 63.3325 43.8464 63.1937 44.3335 63.1937C44.8205 63.1937 45.2975 63.3325 45.7085 63.5938V63.5938Z" stroke="#2C2C2C" stroke-width="2" stroke-linecap="round" stroke-linejoin="round"/>
</svg>
