<svg width="32" height="32" viewBox="0 0 32 32" fill="none" xmlns="http://www.w3.org/2000/svg">
<g clip-path="url(#clip0_1_597)">
<mask id="path-1-outside-1_1_597" maskUnits="userSpaceOnUse" x="0" y="0" width="33" height="32" fill="black">
<rect fill="white" width="33" height="32"/>
<path fill-rule="evenodd" clip-rule="evenodd" d="M10.8596 1.08933C8.07719 1.52098 5.46115 2.95143 3.7053 5.00145C2.42414 6.49717 1.61884 8.10617 1.17156 10.0639C1.00096 10.8109 1 10.8432 1 16.0064C1 21.1658 1.00104 21.2026 1.17112 21.9469C1.34476 22.7069 1.61499 23.5606 1.85722 24.1144L1.99056 24.4193L2.40702 24.2607C2.88712 24.0781 2.88275 24.2001 2.4531 22.9768C1.89782 21.396 1.88922 21.2901 1.88922 16.0064C1.88922 11.7494 1.90174 11.2571 2.02701 10.5971C2.55725 7.80325 4.04672 5.48756 6.36416 3.85409C7.44717 3.09077 8.59307 2.57532 10.0736 2.18549L10.9264 1.96099L16.1118 1.93637C21.9499 1.90871 22.0626 1.91611 23.6389 2.42807C24.6877 2.76875 25.4761 3.15052 26.4035 3.76675L27.1069 4.23427L27.3779 3.87239C27.6941 3.45018 27.7573 3.5458 26.7048 2.85319C25.5346 2.08318 24.1657 1.52258 22.6306 1.18488C21.9062 1.0255 21.7752 1.02151 16.7044 1.00445C12.5379 0.990433 11.3894 1.00713 10.8596 1.08933ZM27.7789 4.20762L27.4497 4.53647L27.783 4.8632L28.1164 5.18994L28.4456 4.8611L28.7749 4.53225L28.4416 4.20552L28.1082 3.87878L27.7789 4.20762ZM28.8036 5.25928L28.458 5.53134L28.8573 6.05165C30.0592 7.61766 30.774 9.42175 30.9689 11.3813C31.0217 11.9112 31.039 13.725 31.0188 16.5873C30.989 20.8011 30.981 21.0096 30.823 21.7062C30.3317 23.8712 29.4291 25.5055 27.8936 27.0096C26.4069 28.466 24.7384 29.3739 22.5935 29.8935C21.9903 30.0396 21.7459 30.0472 16.7785 30.0735C10.935 30.1045 10.8549 30.0993 9.23095 29.5774C6.78736 28.7921 4.54712 27.0214 3.33729 24.9191C3.20521 24.6894 3.08779 24.5016 3.07639 24.5016C3.01409 24.5016 2.36487 24.8873 2.32754 24.9465C2.26087 25.0523 2.99986 26.1684 3.64285 26.9329C5.28226 28.8823 7.62414 30.2505 10.326 30.8374C11.0632 30.9975 11.1555 31 16.4451 31C21.7789 31 21.821 30.9988 22.5935 30.8326C26.1735 30.062 29.0457 27.9388 30.6556 24.873C31.4446 23.3703 31.7987 22.1195 31.9264 20.3831C31.9669 19.8329 32 17.8634 32 16.0064C32 11.3255 31.8976 10.2114 31.3189 8.60455C30.897 7.4328 29.8449 5.61041 29.3181 5.13846L29.1494 4.98729L28.8036 5.25928ZM15.417 6.13631C14.2264 6.34404 13.2373 6.86392 12.3263 7.7607C11.7626 8.31564 11.5954 8.53695 11.3061 9.11143C10.8561 10.0048 10.7169 10.6539 10.762 11.65C10.8534 13.6726 12.0563 15.3763 14.0124 16.2537C14.8738 16.6401 15.4654 16.76 16.4821 16.7545C17.5764 16.7486 18.2382 16.5904 19.2063 16.1031C19.7581 15.8253 20.0186 15.6326 20.5594 15.1022C21.6519 14.0306 22.1491 12.8828 22.1491 11.4321C22.1491 9.02873 20.517 6.96419 18.0728 6.27572C17.4372 6.09667 16.0588 6.02435 15.417 6.13631ZM17.6172 7.1134C19.6858 7.59138 21.2033 9.38414 21.2115 11.3595C21.2166 12.5834 20.8164 13.5363 19.9281 14.416C19.3024 15.0355 18.6929 15.3996 17.8526 15.6556C17.396 15.7948 17.1387 15.8242 16.4081 15.821C15.6363 15.8175 15.4411 15.7906 14.9265 15.6165C13.7147 15.2065 12.7384 14.4139 12.1938 13.3982C11.838 12.7346 11.7042 12.1839 11.7042 11.3843C11.7042 10.1605 12.1669 9.14359 13.12 8.27288C13.756 7.69187 14.776 7.18121 15.5562 7.05321C16.0067 6.97929 17.1858 7.01371 17.6172 7.1134ZM15.5472 9.08035C15.3589 9.14417 15.0422 9.31647 14.8435 9.46314C13.4423 10.497 13.4999 12.4955 14.9582 13.4501C15.4952 13.8016 16.0021 13.9306 16.664 13.8842C18.4527 13.7587 19.5789 11.9882 18.8582 10.4349C18.6131 9.90649 18.0925 9.39133 17.5723 9.16247C17.1057 8.95706 16.0381 8.91379 15.5472 9.08035ZM17.2522 10.0498C18.4436 10.6506 18.4317 12.2347 17.2316 12.7825C15.908 13.3865 14.4844 12.3513 14.8235 11.0314C15.0673 10.0823 16.316 9.57772 17.2522 10.0498ZM11.1285 16.2659C10.4632 16.5908 9.9978 17.4477 10.1144 18.1329C10.2798 19.1051 10.9947 19.6963 12.7618 20.3225L13.4179 20.555L13.0981 20.8337C12.9222 20.9871 12.3528 21.5135 11.8327 22.0035C10.7358 23.0371 10.5198 23.3828 10.5213 24.1022C10.5225 24.6659 10.6998 25.0432 11.1438 25.4262C11.8178 26.0077 12.7284 26.1098 13.481 25.6884C13.6838 25.5747 14.4337 24.932 15.1474 24.26L16.445 23.0382L17.8104 24.3105C18.5614 25.0102 19.3174 25.6534 19.4904 25.74C20.215 26.1023 21.152 25.9705 21.7606 25.4206C22.2167 25.0085 22.3898 24.6453 22.3898 24.1002C22.3898 23.2752 22.19 23.007 20.2476 21.2243L19.4944 20.5329L20.0119 20.3695C20.9126 20.0852 21.9548 19.529 22.2934 19.1519C23.3887 17.9321 22.5632 16.0774 20.9268 16.0817C20.4502 16.0829 19.9467 16.2349 18.9102 16.6908C18.5751 16.8381 18.0918 17.0005 17.8361 17.0516C17.5271 17.1134 17.3719 17.179 17.3735 17.2472C17.3809 17.5616 17.5114 18.0395 17.5899 18.0395C17.8613 18.0395 18.8787 17.7208 19.5466 17.4266C20.5683 16.9766 20.9187 16.8996 21.2775 17.0465C21.7995 17.2603 22.0059 17.9014 21.7072 18.3814C21.443 18.8061 20.5435 19.254 19.0436 19.7077C18.2528 19.9469 18.0133 20.1313 18.1092 20.4273C18.1348 20.5065 18.8519 21.2135 19.7027 21.9983C20.6127 22.8378 21.3007 23.5312 21.374 23.6826C21.6971 24.3499 21.1035 25.0694 20.2928 24.993C19.8567 24.952 19.8504 24.9471 18.0587 23.2617C17.1195 22.3782 16.5431 21.8877 16.4441 21.8877C16.3447 21.8877 15.7867 22.3665 14.8676 23.2406C14.0852 23.9846 13.315 24.6871 13.1561 24.8017C12.682 25.1433 12.0683 25.0713 11.642 24.624C11.4179 24.3887 11.3975 23.8815 11.5999 23.5754C11.6776 23.458 12.4329 22.7162 13.2783 21.9271C14.8781 20.4339 14.9724 20.3069 14.6765 20.0444C14.6001 19.9766 14.1803 19.8077 13.7437 19.6689C11.7711 19.0422 11.0386 18.5712 11.0378 17.9294C11.0373 17.6132 11.2691 17.2368 11.5617 17.0786C11.9222 16.8838 12.2866 16.9502 13.2687 17.39C14.327 17.8639 15.0182 18.0376 16.0562 18.0909L16.8896 18.1336V17.6509V17.1682L16.2414 17.1669C15.3618 17.1652 14.7512 17.0251 13.762 16.5982C12.7538 16.1631 12.459 16.08 11.9224 16.0795C11.6283 16.0792 11.4019 16.1323 11.1285 16.2659Z"/>
</mask>
<path fill-rule="evenodd" clip-rule="evenodd" d="M10.8596 1.08933C8.07719 1.52098 5.46115 2.95143 3.7053 5.00145C2.42414 6.49717 1.61884 8.10617 1.17156 10.0639C1.00096 10.8109 1 10.8432 1 16.0064C1 21.1658 1.00104 21.2026 1.17112 21.9469C1.34476 22.7069 1.61499 23.5606 1.85722 24.1144L1.99056 24.4193L2.40702 24.2607C2.88712 24.0781 2.88275 24.2001 2.4531 22.9768C1.89782 21.396 1.88922 21.2901 1.88922 16.0064C1.88922 11.7494 1.90174 11.2571 2.02701 10.5971C2.55725 7.80325 4.04672 5.48756 6.36416 3.85409C7.44717 3.09077 8.59307 2.57532 10.0736 2.18549L10.9264 1.96099L16.1118 1.93637C21.9499 1.90871 22.0626 1.91611 23.6389 2.42807C24.6877 2.76875 25.4761 3.15052 26.4035 3.76675L27.1069 4.23427L27.3779 3.87239C27.6941 3.45018 27.7573 3.5458 26.7048 2.85319C25.5346 2.08318 24.1657 1.52258 22.6306 1.18488C21.9062 1.0255 21.7752 1.02151 16.7044 1.00445C12.5379 0.990433 11.3894 1.00713 10.8596 1.08933ZM27.7789 4.20762L27.4497 4.53647L27.783 4.8632L28.1164 5.18994L28.4456 4.8611L28.7749 4.53225L28.4416 4.20552L28.1082 3.87878L27.7789 4.20762ZM28.8036 5.25928L28.458 5.53134L28.8573 6.05165C30.0592 7.61766 30.774 9.42175 30.9689 11.3813C31.0217 11.9112 31.039 13.725 31.0188 16.5873C30.989 20.8011 30.981 21.0096 30.823 21.7062C30.3317 23.8712 29.4291 25.5055 27.8936 27.0096C26.4069 28.466 24.7384 29.3739 22.5935 29.8935C21.9903 30.0396 21.7459 30.0472 16.7785 30.0735C10.935 30.1045 10.8549 30.0993 9.23095 29.5774C6.78736 28.7921 4.54712 27.0214 3.33729 24.9191C3.20521 24.6894 3.08779 24.5016 3.07639 24.5016C3.01409 24.5016 2.36487 24.8873 2.32754 24.9465C2.26087 25.0523 2.99986 26.1684 3.64285 26.9329C5.28226 28.8823 7.62414 30.2505 10.326 30.8374C11.0632 30.9975 11.1555 31 16.4451 31C21.7789 31 21.821 30.9988 22.5935 30.8326C26.1735 30.062 29.0457 27.9388 30.6556 24.873C31.4446 23.3703 31.7987 22.1195 31.9264 20.3831C31.9669 19.8329 32 17.8634 32 16.0064C32 11.3255 31.8976 10.2114 31.3189 8.60455C30.897 7.4328 29.8449 5.61041 29.3181 5.13846L29.1494 4.98729L28.8036 5.25928ZM15.417 6.13631C14.2264 6.34404 13.2373 6.86392 12.3263 7.7607C11.7626 8.31564 11.5954 8.53695 11.3061 9.11143C10.8561 10.0048 10.7169 10.6539 10.762 11.65C10.8534 13.6726 12.0563 15.3763 14.0124 16.2537C14.8738 16.6401 15.4654 16.76 16.4821 16.7545C17.5764 16.7486 18.2382 16.5904 19.2063 16.1031C19.7581 15.8253 20.0186 15.6326 20.5594 15.1022C21.6519 14.0306 22.1491 12.8828 22.1491 11.4321C22.1491 9.02873 20.517 6.96419 18.0728 6.27572C17.4372 6.09667 16.0588 6.02435 15.417 6.13631ZM17.6172 7.1134C19.6858 7.59138 21.2033 9.38414 21.2115 11.3595C21.2166 12.5834 20.8164 13.5363 19.9281 14.416C19.3024 15.0355 18.6929 15.3996 17.8526 15.6556C17.396 15.7948 17.1387 15.8242 16.4081 15.821C15.6363 15.8175 15.4411 15.7906 14.9265 15.6165C13.7147 15.2065 12.7384 14.4139 12.1938 13.3982C11.838 12.7346 11.7042 12.1839 11.7042 11.3843C11.7042 10.1605 12.1669 9.14359 13.12 8.27288C13.756 7.69187 14.776 7.18121 15.5562 7.05321C16.0067 6.97929 17.1858 7.01371 17.6172 7.1134ZM15.5472 9.08035C15.3589 9.14417 15.0422 9.31647 14.8435 9.46314C13.4423 10.497 13.4999 12.4955 14.9582 13.4501C15.4952 13.8016 16.0021 13.9306 16.664 13.8842C18.4527 13.7587 19.5789 11.9882 18.8582 10.4349C18.6131 9.90649 18.0925 9.39133 17.5723 9.16247C17.1057 8.95706 16.0381 8.91379 15.5472 9.08035ZM17.2522 10.0498C18.4436 10.6506 18.4317 12.2347 17.2316 12.7825C15.908 13.3865 14.4844 12.3513 14.8235 11.0314C15.0673 10.0823 16.316 9.57772 17.2522 10.0498ZM11.1285 16.2659C10.4632 16.5908 9.9978 17.4477 10.1144 18.1329C10.2798 19.1051 10.9947 19.6963 12.7618 20.3225L13.4179 20.555L13.0981 20.8337C12.9222 20.9871 12.3528 21.5135 11.8327 22.0035C10.7358 23.0371 10.5198 23.3828 10.5213 24.1022C10.5225 24.6659 10.6998 25.0432 11.1438 25.4262C11.8178 26.0077 12.7284 26.1098 13.481 25.6884C13.6838 25.5747 14.4337 24.932 15.1474 24.26L16.445 23.0382L17.8104 24.3105C18.5614 25.0102 19.3174 25.6534 19.4904 25.74C20.215 26.1023 21.152 25.9705 21.7606 25.4206C22.2167 25.0085 22.3898 24.6453 22.3898 24.1002C22.3898 23.2752 22.19 23.007 20.2476 21.2243L19.4944 20.5329L20.0119 20.3695C20.9126 20.0852 21.9548 19.529 22.2934 19.1519C23.3887 17.9321 22.5632 16.0774 20.9268 16.0817C20.4502 16.0829 19.9467 16.2349 18.9102 16.6908C18.5751 16.8381 18.0918 17.0005 17.8361 17.0516C17.5271 17.1134 17.3719 17.179 17.3735 17.2472C17.3809 17.5616 17.5114 18.0395 17.5899 18.0395C17.8613 18.0395 18.8787 17.7208 19.5466 17.4266C20.5683 16.9766 20.9187 16.8996 21.2775 17.0465C21.7995 17.2603 22.0059 17.9014 21.7072 18.3814C21.443 18.8061 20.5435 19.254 19.0436 19.7077C18.2528 19.9469 18.0133 20.1313 18.1092 20.4273C18.1348 20.5065 18.8519 21.2135 19.7027 21.9983C20.6127 22.8378 21.3007 23.5312 21.374 23.6826C21.6971 24.3499 21.1035 25.0694 20.2928 24.993C19.8567 24.952 19.8504 24.9471 18.0587 23.2617C17.1195 22.3782 16.5431 21.8877 16.4441 21.8877C16.3447 21.8877 15.7867 22.3665 14.8676 23.2406C14.0852 23.9846 13.315 24.6871 13.1561 24.8017C12.682 25.1433 12.0683 25.0713 11.642 24.624C11.4179 24.3887 11.3975 23.8815 11.5999 23.5754C11.6776 23.458 12.4329 22.7162 13.2783 21.9271C14.8781 20.4339 14.9724 20.3069 14.6765 20.0444C14.6001 19.9766 14.1803 19.8077 13.7437 19.6689C11.7711 19.0422 11.0386 18.5712 11.0378 17.9294C11.0373 17.6132 11.2691 17.2368 11.5617 17.0786C11.9222 16.8838 12.2866 16.9502 13.2687 17.39C14.327 17.8639 15.0182 18.0376 16.0562 18.0909L16.8896 18.1336V17.6509V17.1682L16.2414 17.1669C15.3618 17.1652 14.7512 17.0251 13.762 16.5982C12.7538 16.1631 12.459 16.08 11.9224 16.0795C11.6283 16.0792 11.4019 16.1323 11.1285 16.2659Z" fill="#101010"/>
<path fill-rule="evenodd" clip-rule="evenodd" d="M10.8596 1.08933C8.07719 1.52098 5.46115 2.95143 3.7053 5.00145C2.42414 6.49717 1.61884 8.10617 1.17156 10.0639C1.00096 10.8109 1 10.8432 1 16.0064C1 21.1658 1.00104 21.2026 1.17112 21.9469C1.34476 22.7069 1.61499 23.5606 1.85722 24.1144L1.99056 24.4193L2.40702 24.2607C2.88712 24.0781 2.88275 24.2001 2.4531 22.9768C1.89782 21.396 1.88922 21.2901 1.88922 16.0064C1.88922 11.7494 1.90174 11.2571 2.02701 10.5971C2.55725 7.80325 4.04672 5.48756 6.36416 3.85409C7.44717 3.09077 8.59307 2.57532 10.0736 2.18549L10.9264 1.96099L16.1118 1.93637C21.9499 1.90871 22.0626 1.91611 23.6389 2.42807C24.6877 2.76875 25.4761 3.15052 26.4035 3.76675L27.1069 4.23427L27.3779 3.87239C27.6941 3.45018 27.7573 3.5458 26.7048 2.85319C25.5346 2.08318 24.1657 1.52258 22.6306 1.18488C21.9062 1.0255 21.7752 1.02151 16.7044 1.00445C12.5379 0.990433 11.3894 1.00713 10.8596 1.08933ZM27.7789 4.20762L27.4497 4.53647L27.783 4.8632L28.1164 5.18994L28.4456 4.8611L28.7749 4.53225L28.4416 4.20552L28.1082 3.87878L27.7789 4.20762ZM28.8036 5.25928L28.458 5.53134L28.8573 6.05165C30.0592 7.61766 30.774 9.42175 30.9689 11.3813C31.0217 11.9112 31.039 13.725 31.0188 16.5873C30.989 20.8011 30.981 21.0096 30.823 21.7062C30.3317 23.8712 29.4291 25.5055 27.8936 27.0096C26.4069 28.466 24.7384 29.3739 22.5935 29.8935C21.9903 30.0396 21.7459 30.0472 16.7785 30.0735C10.935 30.1045 10.8549 30.0993 9.23095 29.5774C6.78736 28.7921 4.54712 27.0214 3.33729 24.9191C3.20521 24.6894 3.08779 24.5016 3.07639 24.5016C3.01409 24.5016 2.36487 24.8873 2.32754 24.9465C2.26087 25.0523 2.99986 26.1684 3.64285 26.9329C5.28226 28.8823 7.62414 30.2505 10.326 30.8374C11.0632 30.9975 11.1555 31 16.4451 31C21.7789 31 21.821 30.9988 22.5935 30.8326C26.1735 30.062 29.0457 27.9388 30.6556 24.873C31.4446 23.3703 31.7987 22.1195 31.9264 20.3831C31.9669 19.8329 32 17.8634 32 16.0064C32 11.3255 31.8976 10.2114 31.3189 8.60455C30.897 7.4328 29.8449 5.61041 29.3181 5.13846L29.1494 4.98729L28.8036 5.25928ZM15.417 6.13631C14.2264 6.34404 13.2373 6.86392 12.3263 7.7607C11.7626 8.31564 11.5954 8.53695 11.3061 9.11143C10.8561 10.0048 10.7169 10.6539 10.762 11.65C10.8534 13.6726 12.0563 15.3763 14.0124 16.2537C14.8738 16.6401 15.4654 16.76 16.4821 16.7545C17.5764 16.7486 18.2382 16.5904 19.2063 16.1031C19.7581 15.8253 20.0186 15.6326 20.5594 15.1022C21.6519 14.0306 22.1491 12.8828 22.1491 11.4321C22.1491 9.02873 20.517 6.96419 18.0728 6.27572C17.4372 6.09667 16.0588 6.02435 15.417 6.13631ZM17.6172 7.1134C19.6858 7.59138 21.2033 9.38414 21.2115 11.3595C21.2166 12.5834 20.8164 13.5363 19.9281 14.416C19.3024 15.0355 18.6929 15.3996 17.8526 15.6556C17.396 15.7948 17.1387 15.8242 16.4081 15.821C15.6363 15.8175 15.4411 15.7906 14.9265 15.6165C13.7147 15.2065 12.7384 14.4139 12.1938 13.3982C11.838 12.7346 11.7042 12.1839 11.7042 11.3843C11.7042 10.1605 12.1669 9.14359 13.12 8.27288C13.756 7.69187 14.776 7.18121 15.5562 7.05321C16.0067 6.97929 17.1858 7.01371 17.6172 7.1134ZM15.5472 9.08035C15.3589 9.14417 15.0422 9.31647 14.8435 9.46314C13.4423 10.497 13.4999 12.4955 14.9582 13.4501C15.4952 13.8016 16.0021 13.9306 16.664 13.8842C18.4527 13.7587 19.5789 11.9882 18.8582 10.4349C18.6131 9.90649 18.0925 9.39133 17.5723 9.16247C17.1057 8.95706 16.0381 8.91379 15.5472 9.08035ZM17.2522 10.0498C18.4436 10.6506 18.4317 12.2347 17.2316 12.7825C15.908 13.3865 14.4844 12.3513 14.8235 11.0314C15.0673 10.0823 16.316 9.57772 17.2522 10.0498ZM11.1285 16.2659C10.4632 16.5908 9.9978 17.4477 10.1144 18.1329C10.2798 19.1051 10.9947 19.6963 12.7618 20.3225L13.4179 20.555L13.0981 20.8337C12.9222 20.9871 12.3528 21.5135 11.8327 22.0035C10.7358 23.0371 10.5198 23.3828 10.5213 24.1022C10.5225 24.6659 10.6998 25.0432 11.1438 25.4262C11.8178 26.0077 12.7284 26.1098 13.481 25.6884C13.6838 25.5747 14.4337 24.932 15.1474 24.26L16.445 23.0382L17.8104 24.3105C18.5614 25.0102 19.3174 25.6534 19.4904 25.74C20.215 26.1023 21.152 25.9705 21.7606 25.4206C22.2167 25.0085 22.3898 24.6453 22.3898 24.1002C22.3898 23.2752 22.19 23.007 20.2476 21.2243L19.4944 20.5329L20.0119 20.3695C20.9126 20.0852 21.9548 19.529 22.2934 19.1519C23.3887 17.9321 22.5632 16.0774 20.9268 16.0817C20.4502 16.0829 19.9467 16.2349 18.9102 16.6908C18.5751 16.8381 18.0918 17.0005 17.8361 17.0516C17.5271 17.1134 17.3719 17.179 17.3735 17.2472C17.3809 17.5616 17.5114 18.0395 17.5899 18.0395C17.8613 18.0395 18.8787 17.7208 19.5466 17.4266C20.5683 16.9766 20.9187 16.8996 21.2775 17.0465C21.7995 17.2603 22.0059 17.9014 21.7072 18.3814C21.443 18.8061 20.5435 19.254 19.0436 19.7077C18.2528 19.9469 18.0133 20.1313 18.1092 20.4273C18.1348 20.5065 18.8519 21.2135 19.7027 21.9983C20.6127 22.8378 21.3007 23.5312 21.374 23.6826C21.6971 24.3499 21.1035 25.0694 20.2928 24.993C19.8567 24.952 19.8504 24.9471 18.0587 23.2617C17.1195 22.3782 16.5431 21.8877 16.4441 21.8877C16.3447 21.8877 15.7867 22.3665 14.8676 23.2406C14.0852 23.9846 13.315 24.6871 13.1561 24.8017C12.682 25.1433 12.0683 25.0713 11.642 24.624C11.4179 24.3887 11.3975 23.8815 11.5999 23.5754C11.6776 23.458 12.4329 22.7162 13.2783 21.9271C14.8781 20.4339 14.9724 20.3069 14.6765 20.0444C14.6001 19.9766 14.1803 19.8077 13.7437 19.6689C11.7711 19.0422 11.0386 18.5712 11.0378 17.9294C11.0373 17.6132 11.2691 17.2368 11.5617 17.0786C11.9222 16.8838 12.2866 16.9502 13.2687 17.39C14.327 17.8639 15.0182 18.0376 16.0562 18.0909L16.8896 18.1336V17.6509V17.1682L16.2414 17.1669C15.3618 17.1652 14.7512 17.0251 13.762 16.5982C12.7538 16.1631 12.459 16.08 11.9224 16.0795C11.6283 16.0792 11.4019 16.1323 11.1285 16.2659Z" stroke="#101010" stroke-width="0.4" mask="url(#path-1-outside-1_1_597)"/>
</g>
<defs>
<clipPath id="clip0_1_597">
<rect width="32" height="32" fill="white"/>
</clipPath>
</defs>
</svg>
