<svg width="88" height="88" viewBox="0 0 88 88" fill="none" xmlns="http://www.w3.org/2000/svg">
<rect width="88" height="88" fill="white"/>
<path d="M42.3439 12.0937L17.1252 17.125L12.094 42.3437C12.0151 42.7464 12.0366 43.1622 12.1565 43.5546C12.2764 43.947 12.491 44.3039 12.7815 44.5937L45.4064 77.2187C45.6364 77.454 45.911 77.6409 46.2142 77.7686C46.5174 77.8962 46.8431 77.962 47.1721 77.962C47.5011 77.962 47.8267 77.8962 48.1299 77.7686C48.4331 77.6409 48.7078 77.454 48.9377 77.2187L77.219 48.9375C77.4542 48.7075 77.6412 48.4329 77.7688 48.1297C77.8965 47.8265 77.9622 47.5008 77.9622 47.1718C77.9622 46.8429 77.8965 46.5172 77.7688 46.214C77.6412 45.9108 77.4542 45.6361 77.219 45.4062L44.5939 12.7812C44.3041 12.4908 43.9473 12.2761 43.5549 12.1562C43.1625 12.0363 42.7466 12.0149 42.3439 12.0937V12.0937Z" stroke="#2C2C2C" stroke-width="2" stroke-linecap="round" stroke-linejoin="round"/>
<path d="M30.25 34C32.3211 34 34 32.3211 34 30.25C34 28.1789 32.3211 26.5 30.25 26.5C28.1789 26.5 26.5 28.1789 26.5 30.25C26.5 32.3211 28.1789 34 30.25 34Z" fill="#2C2C2C"/>
</svg>
