<svg width="32" height="32" viewBox="0 0 32 32" fill="none" xmlns="http://www.w3.org/2000/svg">
<path fill-rule="evenodd" clip-rule="evenodd" d="M16 31C12.6991 31 10.3016 30.9987 8.436 30.8021C6.58821 30.6073 5.37783 30.2299 4.41139 29.5532C3.64695 29.0179 2.98205 28.3531 2.44678 27.5886C1.77008 26.6222 1.39271 25.4118 1.19794 23.564C1.0013 21.6984 1 19.3009 1 16C1 12.6991 1.0013 10.3016 1.19794 8.436C1.39271 6.58821 1.77008 5.37783 2.44678 4.41139C2.98205 3.64695 3.64695 2.98205 4.41139 2.44678C5.37783 1.77008 6.58821 1.39271 8.436 1.19794C10.3016 1.0013 12.6991 1 16 1C19.3009 1 21.6984 1.0013 23.564 1.19794C25.4118 1.39271 26.6222 1.77008 27.5886 2.44678C28.3531 2.98205 29.0179 3.64695 29.5532 4.41139C30.2299 5.37783 30.6073 6.58821 30.8021 8.436C30.9987 10.3016 31 12.6991 31 16C31 19.3009 30.9987 21.6984 30.8021 23.564C30.6073 25.4118 30.2299 26.6222 29.5532 27.5886C29.0179 28.3531 28.3531 29.0179 27.5886 29.5532C26.6222 30.2299 25.4118 30.6073 23.564 30.8021C21.6984 30.9987 19.3009 31 16 31ZM0 16C0 9.44154 0 6.16231 1.62763 3.83781C2.22981 2.97781 2.97781 2.22981 3.83781 1.62763C6.16231 0 9.44154 0 16 0C22.5585 0 25.8377 0 28.1622 1.62763C29.0222 2.22981 29.7702 2.97781 30.3724 3.83781C32 6.16231 32 9.44154 32 16C32 22.5585 32 25.8377 30.3724 28.1622C29.7702 29.0222 29.0222 29.7702 28.1622 30.3724C25.8377 32 22.5585 32 16 32C9.44154 32 6.16231 32 3.83781 30.3724C2.97781 29.7702 2.22981 29.0222 1.62763 28.1622C0 25.8377 0 22.5585 0 16ZM14.179 10.6667V18.7225C12.8106 18.2267 9.68279 16.4916 9.4873 10.6667H6.22921C6.03372 16.8635 9.94344 22.6884 17.3067 22.1927V17.9789C18.4796 18.0615 21.1383 19.0199 22.3894 22.1927H25.7778C25.7778 20.3337 23.041 17.0494 20.8255 16.3677C22.1504 15.7067 24.7352 13.5172 25.1262 10.6667H21.8681C21.3902 12.03 19.809 14.8309 17.3067 15.1284V10.6667H14.179Z" fill="#101010"/>
</svg>
